<svg preserveAspectRatio="none" width="100%" height="100%" overflow="visible" style="display: block;" viewBox="0 0 24 24" fill="none" xmlns="http://www.w3.org/2000/svg">
<g id="Icon / Cash">
<path id="Vector" d="M2.01709 15C4.21666 15 5.99977 16.7831 5.99977 18.9827M18 18.9827V18.8908C18 16.742 19.742 15 21.8908 15M5.99977 5.01562C5.99977 7.2152 4.21666 8.9983 2.01709 8.9983M18 5.01562C18 7.19594 19.769 8.96705 21.9423 8.99789M11.9961 7.49976V8.78415M11.9961 15.1932V16.4998M9.99127 14.2498C10.4501 14.911 11.4585 15.1774 12.1364 15.2012C13.0204 15.2324 14.139 14.9423 14.2413 13.6001C14.3435 12.2578 13.5396 11.9989 11.5329 11.8435C9.92767 11.7192 9.89119 10.5792 10.0736 10.0248C10.1905 9.61023 10.7668 8.78116 12.1364 8.78119C12.9421 8.7812 13.5034 9.25231 13.8016 9.74976M16 5H8C5.17157 5 3.75736 5 2.87868 5.87868C2 6.75736 2 8.17157 2 11V13C2 15.8284 2 17.2426 2.87868 18.1213C3.75736 19 5.17157 19 8 19H16C18.8284 19 20.2426 19 21.1213 18.1213C22 17.2426 22 15.8284 22 13V11C22 8.17157 22 6.75736 21.1213 5.87868C20.2426 5 18.8284 5 16 5Z" stroke="var(--stroke-0, #1583E4)" stroke-width="1.2" stroke-linecap="round" stroke-linejoin="round"/>
</g>
</svg>
