<svg preserveAspectRatio="none" width="100%" height="100%" overflow="visible" style="display: block;" viewBox="0 0 24 24" fill="none" xmlns="http://www.w3.org/2000/svg">
<g id="Icon / Cheque">
<path id="Vector" d="M11 5H9C4 5 2 6.4 2 9.9V14.1C2 17.6 4 19 9 19H15C20 19 22 17.6 22 14.1V9.9C22 9.38936 21.9574 8.92341 21.8692 8.5M5 15H13M5 11H10M18.1368 3.2638C18.4894 4.52168 19.4734 5.50588 20.7364 5.86378M18.7314 2.66906L14.5847 6.8164C14.4268 6.97429 14.2689 7.28482 14.2374 7.51113L14.0111 9.09533C13.9269 9.66901 14.3321 10.069 14.9057 9.99006L16.4897 9.76375C16.7107 9.73217 17.0212 9.57428 17.1843 9.41638L21.331 5.26904C22.0467 4.55326 22.3835 3.72169 21.331 2.66906C20.2786 1.61644 19.4471 1.95328 18.7314 2.66906Z" stroke="var(--stroke-0, #C0C9D0)" stroke-width="1.2" stroke-miterlimit="10" stroke-linecap="round" stroke-linejoin="round"/>
</g>
</svg>
