<svg preserveAspectRatio="none" width="100%" height="100%" overflow="visible" style="display: block;" viewBox="0 0 24 24" fill="none" xmlns="http://www.w3.org/2000/svg">
<g id="Icon / Credit">
<path id="Vector" d="M1.99988 9H21.9999M18.9999 16L18.1428 12L15.9999 16M9.99994 16L10.9999 12M4.99994 12H5.99994V16H6.49994L8.99994 12M14.9999 12.3333C14.9999 12.2449 14.9548 12.1601 14.8744 12.0976C14.794 12.0351 14.685 12 14.5714 12H13.9285C13.3105 12 12.7825 12.3473 12.6814 12.822L12.6042 13.178C12.5826 13.2792 12.5895 13.3828 12.6245 13.4816C12.6596 13.5805 12.7219 13.6722 12.8071 13.7505C12.8924 13.8287 12.9985 13.8915 13.1182 13.9346C13.2378 13.9777 13.3681 14 13.4999 14C13.6318 14 13.7621 14.0223 13.8817 14.0654C14.0014 14.1085 14.1075 14.1713 14.1927 14.2495C14.278 14.3278 14.3403 14.4195 14.3753 14.5184C14.4104 14.6172 14.4173 14.7208 14.3957 14.822L14.3185 15.178C14.2692 15.4076 14.1169 15.6162 13.8886 15.7667C13.6602 15.9172 13.3707 15.9999 13.0714 16H12.4285C12.3148 16 12.2058 15.9649 12.1255 15.9024C12.0451 15.8399 11.9999 15.7551 11.9999 15.6667M16.6667 15H18.6667M1.99988 12C1.99988 8.46252 1.99988 6.69377 3.05268 5.5129C3.22107 5.32403 3.40666 5.14935 3.60734 4.99087C4.86201 4 6.7413 4 10.4999 4H13.4999C17.2585 4 19.1378 4 20.3924 4.99087C20.5931 5.14935 20.7787 5.32403 20.9471 5.5129C21.9999 6.69377 21.9999 8.46252 21.9999 12C21.9999 15.5375 21.9999 17.3062 20.9471 18.4871C20.7787 18.676 20.5931 18.8506 20.3924 19.0091C19.1378 20 17.2585 20 13.4999 20H10.4999C6.7413 20 4.86201 20 3.60734 19.0091C3.40666 18.8506 3.22107 18.676 3.05268 18.4871C1.99988 17.3062 1.99988 15.5375 1.99988 12Z" stroke="var(--stroke-0, #C0C9D0)" stroke-width="1.2" stroke-linecap="round" stroke-linejoin="round"/>
</g>
</svg>
